<!DOCTYPE svg PUBLIC "-//W3C//DTD SVG 20010904//EN" "http://www.w3.org/TR/2001/REC-SVG-20010904/DTD/svg10.dtd">
<svg version="1.0" xmlns="http://www.w3.org/2000/svg" width="256px" height="256px" viewBox="0 0 2560 2560" preserveAspectRatio="xMidYMid meet">
<g id="layer101" fill="#bd953d" stroke="none">
 <path d="M1173 2300 c-12 -11 -25 -38 -28 -62 -4 -24 -5 -250 -3 -503 l3 -461 28 -27 c15 -16 27 -31 27 -35 0 -12 52 -32 82 -32 15 0 28 -4 28 -8 0 -4 32 -16 70 -26 39 -10 70 -21 70 -25 0 -9 -65 0 -170 24 -71 16 -115 16 -245 -1 -22 -3 -48 -5 -57 -5 -10 0 -18 -4 -18 -8 0 -5 -9 -11 -19 -14 -14 -3 -18 -1 -14 9 3 8 8 14 12 14 4 0 18 10 30 21 19 18 25 19 32 8 7 -11 11 -11 21 4 15 20 12 107 -4 107 -5 0 -16 7 -24 15 -9 8 -12 15 -9 15 4 0 -6 12 -22 28 -16 15 -32 35 -36 45 -3 9 -11 17 -17 17 -16 0 -42 28 -36 39 3 4 -18 29 -46 55 -45 41 -56 46 -97 46 -46 0 -111 -29 -111 -49 0 -6 -16 -13 -35 -17 -20 -3 -35 -12 -35 -20 0 -9 -11 -14 -30 -14 -18 0 -33 -7 -39 -18 -5 -10 -25 -24 -45 -32 -20 -7 -36 -17 -36 -22 0 -4 -7 -8 -15 -8 -8 0 -15 -4 -15 -10 0 -5 -8 -10 -18 -10 -10 0 -24 -9 -32 -20 -8 -11 -20 -20 -27 -20 -7 0 -13 -4 -13 -10 0 -5 -6 -10 -14 -10 -14 0 -26 -29 -26 -63 0 -9 11 -27 25 -39 14 -12 25 -30 25 -40 0 -10 7 -18 15 -18 8 0 15 -5 15 -10 0 -19 94 -110 113 -110 11 0 32 -9 49 -21 32 -23 60 -27 96 -15 20 7 22 4 22 -23 0 -36 38 -61 93 -61 18 0 37 -4 43 -9 5 -5 38 -11 74 -15 36 -3 90 -10 120 -16 30 -6 74 -14 98 -17 41 -5 42 -5 42 26 0 39 27 108 46 115 11 4 9 -4 -6 -34 -11 -22 -20 -52 -20 -68 0 -78 72 -171 152 -198 27 -9 46 -19 43 -23 -4 -3 -34 -37 -68 -75 -34 -37 -77 -85 -95 -105 -18 -20 -37 -52 -44 -73 -9 -31 -8 -43 11 -81 24 -50 47 -62 130 -71 35 -3 62 -13 76 -26 12 -11 25 -20 29 -20 5 0 6 32 4 70 -4 50 -11 77 -24 91 -24 27 -67 49 -94 49 -29 0 -25 21 13 66 19 21 59 73 89 114 31 41 67 89 82 105 56 65 60 159 9 223 -54 68 -56 86 -4 30 30 -32 64 -112 60 -140 -7 -51 14 -67 60 -47 40 18 61 67 61 144 0 41 4 65 11 65 8 0 9 -17 5 -52 -7 -61 5 -114 31 -134 20 -15 93 -19 109 -6 5 5 43 19 84 31 41 13 97 32 124 42 27 11 54 19 61 19 6 0 26 7 43 16 32 15 45 55 22 69 -10 6 -215 61 -285 76 -22 5 -58 14 -80 20 -22 6 -57 13 -77 16 l-38 5 -1 -43 -2 -44 -7 49 c-3 28 -12 52 -18 54 -18 6 -4 22 19 22 10 0 27 -4 37 -9 31 -16 88 -31 115 -31 15 0 27 -4 27 -9 0 -10 47 -20 133 -28 31 -2 55 -9 51 -14 -3 -5 4 -9 15 -9 11 0 23 -4 26 -10 3 -5 33 -10 66 -10 62 0 89 13 89 44 0 9 5 16 11 16 5 0 7 4 4 10 -3 5 1 10 9 10 20 0 20 -27 1 -74 l-15 -36 31 7 c18 3 47 22 65 42 51 54 45 108 -16 141 -28 15 -50 2 -50 -31 0 -27 -20 -43 -20 -16 -1 6 0 188 0 404 1 385 0 392 -22 437 -12 25 -27 46 -33 46 -5 0 -16 9 -23 20 -7 11 -21 20 -32 20 -11 0 -20 5 -20 10 0 6 -9 10 -20 10 -11 0 -30 5 -43 12 -46 24 -57 28 -72 28 -8 0 -30 9 -50 20 -20 11 -47 20 -60 20 -14 0 -25 5 -25 10 0 6 -11 10 -24 10 -14 0 -27 4 -30 8 -3 4 -28 14 -55 22 -28 7 -51 17 -51 22 0 4 -11 8 -25 8 -13 0 -39 9 -57 20 -18 11 -43 20 -55 20 -13 0 -23 5 -23 10 0 6 -13 10 -28 10 -15 0 -32 4 -37 8 -6 5 -29 15 -52 22 -24 7 -43 17 -43 22 0 17 -86 8 -107 -12z"/>
 <path d="M1030 2287 c-24 -12 -49 -29 -75 -54 -8 -7 -16 -13 -19 -13 -6 0 -36 -24 -61 -47 -8 -7 -16 -13 -20 -13 -3 0 -16 -10 -29 -22 -33 -33 -65 -58 -72 -58 -4 0 -29 -19 -57 -42 -29 -24 -60 -50 -71 -58 -34 -27 -71 -64 -93 -97 -44 -62 -53 -108 -53 -275 l0 -156 22 6 c13 3 31 13 40 22 10 9 31 23 46 31 15 8 35 21 45 30 23 20 88 32 133 23 35 -6 75 -41 154 -133 25 -28 61 -69 80 -90 51 -56 60 -69 60 -83 1 -7 7 -24 14 -37 13 -23 13 -23 29 18 15 37 17 100 17 541 0 483 -1 500 -19 510 -24 12 -39 12 -71 -3z"/>
 <path d="M537 836 c-69 -37 -91 -92 -67 -162 26 -75 176 -99 237 -38 8 8 18 12 21 9 3 -3 14 -62 23 -130 11 -81 23 -130 33 -141 9 -8 16 -20 16 -25 0 -5 23 -9 51 -9 44 0 55 4 87 35 20 20 49 38 65 42 33 7 34 14 5 39 -58 49 -90 54 -140 24 -43 -26 -58 -25 -58 3 0 39 -49 267 -64 295 -26 50 -53 66 -119 70 -42 2 -71 -2 -90 -12z"/>
 </g>
<g id="layer102" fill="#f7782f" stroke="none">
 <path d="M1173 2300 c-12 -11 -25 -38 -28 -62 -4 -24 -5 -250 -3 -503 l3 -461 28 -27 c15 -16 27 -31 27 -35 0 -12 52 -32 82 -32 15 0 28 -4 28 -8 0 -4 32 -16 70 -26 39 -10 70 -21 70 -25 0 -9 -66 1 -165 23 -82 19 -170 22 -159 5 5 -8 1 -8 -13 0 -11 6 -23 7 -27 4 -6 -6 -65 -14 -108 -14 -10 0 -18 -4 -18 -8 0 -5 -9 -11 -19 -14 -14 -3 -18 -1 -14 9 3 8 8 14 12 14 4 0 18 10 30 21 19 18 25 19 32 8 7 -11 11 -11 21 4 15 20 12 107 -4 107 -5 0 -16 7 -24 15 -9 8 -12 15 -9 15 4 0 -6 12 -22 28 -16 15 -32 35 -36 45 -3 9 -11 17 -17 17 -16 0 -42 28 -36 39 3 4 -18 29 -46 55 -45 41 -56 46 -97 46 -46 0 -111 -29 -111 -49 0 -6 -16 -13 -35 -17 -20 -3 -35 -12 -35 -20 0 -9 -11 -14 -30 -14 -18 0 -33 -7 -39 -18 -5 -10 -25 -24 -45 -32 -20 -7 -36 -17 -36 -22 0 -4 -7 -8 -15 -8 -8 0 -15 -4 -15 -10 0 -5 -8 -10 -18 -10 -10 0 -24 -9 -32 -20 -8 -11 -20 -20 -27 -20 -7 0 -13 -4 -13 -10 0 -5 -6 -10 -14 -10 -14 0 -26 -29 -26 -63 0 -9 11 -27 25 -39 14 -12 25 -30 25 -40 0 -10 7 -18 15 -18 8 0 15 -5 15 -10 0 -19 94 -110 113 -110 11 0 31 -8 45 -18 40 -28 59 -32 89 -21 30 11 46 -3 37 -33 -6 -22 42 -48 89 -48 18 0 37 -4 43 -9 5 -5 38 -11 74 -15 36 -3 90 -10 120 -16 30 -6 74 -14 97 -17 l41 -5 -2 36 c-1 20 1 36 4 36 3 0 12 15 18 34 7 19 19 37 27 40 12 4 11 -3 -5 -34 -11 -22 -20 -52 -20 -68 0 -78 72 -171 152 -198 27 -9 46 -19 43 -23 -4 -3 -34 -37 -68 -75 -34 -37 -77 -85 -95 -105 -18 -20 -37 -52 -44 -73 -9 -31 -8 -43 11 -81 24 -50 47 -62 130 -71 35 -3 62 -13 76 -26 12 -11 25 -20 29 -20 5 0 6 32 4 70 -4 50 -11 77 -24 91 -24 27 -67 49 -94 49 -29 0 -25 21 13 66 19 21 59 73 89 114 31 41 67 89 82 105 56 65 60 159 9 223 -43 55 -46 61 -23 55 10 -3 18 -10 17 -17 -1 -6 5 -10 13 -8 8 2 12 0 8 -4 -4 -4 -4 -12 1 -18 17 -21 48 -115 41 -123 -11 -11 7 -53 23 -53 29 0 66 27 81 58 10 19 16 59 16 97 0 41 4 65 11 65 8 0 9 -17 5 -52 -7 -61 5 -114 31 -134 21 -16 85 -18 111 -4 16 8 77 29 180 60 30 10 39 16 30 23 -10 7 -9 8 3 4 22 -7 84 8 82 20 -1 5 8 9 20 9 16 -1 23 6 25 23 2 13 0 27 -5 32 -8 8 -192 59 -288 80 -22 5 -58 14 -80 20 -22 6 -57 13 -77 16 l-38 5 -1 -43 -2 -44 -7 49 c-3 28 -12 52 -18 54 -18 6 -4 22 19 22 10 0 27 -4 37 -9 31 -16 88 -31 115 -31 15 0 27 -4 27 -9 0 -10 47 -20 133 -28 31 -2 55 -9 51 -14 -3 -5 4 -9 15 -9 11 0 23 -4 26 -10 3 -5 33 -10 66 -10 62 0 89 13 89 44 0 9 5 16 11 16 5 0 7 4 4 10 -3 5 1 10 9 10 20 0 20 -27 1 -74 -8 -20 -11 -36 -6 -36 6 0 12 4 15 9 3 5 15 7 26 4 18 -5 25 5 21 30 -1 5 3 6 8 3 5 -4 19 4 30 16 25 26 28 80 5 102 -44 44 -84 42 -84 -5 0 -27 -20 -43 -20 -16 -1 6 0 188 0 404 1 385 0 392 -22 437 -12 25 -27 46 -33 46 -5 0 -16 9 -23 20 -7 11 -21 20 -32 20 -11 0 -20 5 -20 10 0 6 -9 10 -20 10 -11 0 -30 5 -43 12 -46 24 -57 28 -72 28 -8 0 -30 9 -50 20 -20 11 -47 20 -60 20 -14 0 -25 5 -25 10 0 6 -11 10 -24 10 -14 0 -27 4 -30 8 -3 4 -28 14 -55 22 -28 7 -51 17 -51 22 0 4 -11 8 -25 8 -13 0 -39 9 -57 20 -18 11 -43 20 -55 20 -13 0 -23 5 -23 10 0 6 -13 10 -28 10 -15 0 -32 4 -37 8 -6 5 -29 15 -52 22 -24 7 -43 17 -43 22 0 17 -86 8 -107 -12z"/>
 <path d="M1030 2287 c-24 -12 -49 -29 -75 -54 -8 -7 -16 -13 -19 -13 -6 0 -36 -24 -61 -47 -8 -7 -16 -13 -20 -13 -3 0 -16 -10 -29 -22 -33 -33 -65 -58 -72 -58 -4 0 -29 -19 -57 -42 -29 -24 -60 -50 -71 -58 -34 -27 -71 -64 -93 -97 -44 -62 -53 -108 -53 -275 l0 -156 22 6 c13 3 31 13 40 22 10 9 31 23 46 31 15 8 35 21 45 30 23 20 88 32 133 23 35 -6 75 -41 154 -133 25 -28 61 -69 80 -90 51 -56 60 -69 60 -83 1 -7 7 -24 14 -37 13 -23 13 -23 29 18 15 37 17 100 17 541 0 483 -1 500 -19 510 -24 12 -39 12 -71 -3z"/>
 <path d="M537 836 c-69 -37 -91 -92 -67 -162 26 -75 176 -99 237 -38 8 8 18 12 21 9 3 -3 14 -62 23 -130 11 -81 23 -130 33 -141 9 -8 16 -20 16 -25 0 -5 23 -9 51 -9 44 0 55 4 87 35 20 20 49 38 65 42 33 7 34 14 5 39 -58 49 -90 54 -140 24 -43 -26 -58 -25 -58 3 0 39 -49 267 -64 295 -26 50 -53 66 -119 70 -42 2 -71 -2 -90 -12z"/>
 </g>
<g id="layer103" fill="#f59f24" stroke="none">
 <path d="M1173 2300 c-12 -11 -25 -38 -28 -62 -4 -24 -5 -250 -3 -503 l3 -461 28 -27 c15 -16 27 -31 27 -35 0 -12 52 -32 82 -32 15 0 28 -4 28 -8 0 -4 32 -16 70 -26 39 -10 70 -21 70 -25 0 -9 -66 1 -165 23 -82 19 -170 22 -159 5 5 -8 1 -8 -13 0 -11 6 -23 7 -27 4 -6 -6 -65 -14 -108 -14 -10 0 -18 -4 -18 -8 0 -5 -9 -11 -19 -14 -14 -3 -18 -1 -14 9 3 8 8 14 12 14 4 0 18 10 30 21 19 18 25 19 32 8 7 -11 11 -11 21 4 15 20 12 107 -4 107 -5 0 -16 7 -24 15 -9 8 -12 15 -9 15 4 0 -6 12 -22 28 -16 15 -32 35 -36 45 -3 9 -11 17 -17 17 -16 0 -42 28 -36 39 3 4 -18 29 -46 55 -45 41 -56 46 -97 46 -46 0 -111 -29 -111 -49 0 -6 -16 -13 -35 -17 -20 -3 -35 -12 -35 -20 0 -9 -11 -14 -30 -14 -18 0 -33 -7 -39 -18 -5 -10 -25 -24 -45 -32 -20 -7 -36 -17 -36 -22 0 -4 -7 -8 -15 -8 -8 0 -15 -4 -15 -10 0 -5 -8 -10 -18 -10 -10 0 -24 -9 -32 -20 -8 -11 -20 -20 -27 -20 -7 0 -13 -4 -13 -10 0 -5 -6 -10 -14 -10 -14 0 -26 -29 -26 -63 0 -9 11 -27 25 -39 14 -12 25 -30 25 -40 0 -10 7 -18 15 -18 8 0 15 -5 15 -10 0 -19 94 -110 113 -110 11 0 31 -8 45 -18 40 -28 59 -32 89 -21 30 11 46 -3 37 -33 -6 -22 42 -48 89 -48 18 0 37 -4 43 -9 5 -5 38 -11 74 -15 36 -3 90 -10 120 -16 30 -6 74 -14 97 -17 l41 -5 -2 36 c-1 20 1 36 4 36 3 0 12 15 18 34 7 19 19 37 27 40 12 4 11 -3 -5 -34 -11 -22 -20 -52 -20 -68 0 -78 72 -171 152 -198 27 -9 46 -19 43 -23 -4 -3 -34 -37 -68 -75 -34 -37 -77 -85 -95 -105 -18 -20 -37 -52 -44 -73 -9 -31 -8 -43 11 -81 24 -50 47 -62 130 -71 35 -3 62 -13 76 -26 12 -11 25 -20 29 -20 5 0 6 32 4 70 -4 50 -11 77 -24 91 -24 27 -67 49 -94 49 -29 0 -25 21 13 66 19 21 59 73 89 114 31 41 67 89 82 105 56 65 60 159 9 223 -43 55 -46 61 -23 55 10 -3 18 -10 17 -17 -1 -6 5 -10 13 -8 8 2 12 0 8 -4 -4 -4 -4 -12 1 -18 17 -21 48 -115 41 -123 -11 -11 7 -53 23 -53 29 0 66 27 81 58 10 19 16 59 16 97 0 36 4 65 9 65 5 0 13 9 16 20 8 24 40 27 49 4 9 -23 8 -24 -15 -24 -19 0 -20 -5 -18 -62 2 -35 6 -67 9 -73 4 -5 10 -19 14 -30 6 -17 4 -17 -18 4 -15 14 -26 19 -26 13 0 -6 10 -20 22 -32 24 -22 102 -28 114 -9 4 8 -4 9 -27 5 -25 -4 -29 -4 -14 3 11 5 34 8 50 5 32 -5 65 10 51 23 -5 4 -11 2 -13 -4 -6 -18 -23 -16 -23 2 0 10 10 15 31 15 20 0 28 -4 23 -12 -5 -8 0 -9 17 -4 13 4 38 11 54 15 17 5 47 16 69 25 21 9 47 16 57 16 34 0 28 16 -7 17 -22 1 -37 -4 -41 -13 -3 -9 -13 -12 -24 -9 -11 4 -19 2 -19 -4 0 -15 -27 -14 -32 2 -3 7 -23 12 -51 12 -26 0 -47 3 -47 8 0 4 11 7 25 7 14 0 25 5 25 10 0 6 9 10 21 10 15 0 19 -5 15 -16 -5 -12 -1 -14 17 -8 12 4 24 11 25 15 4 11 92 12 92 1 0 -4 15 -8 33 -7 26 0 33 4 35 24 2 13 0 27 -5 32 -8 8 -192 59 -288 80 -22 5 -58 14 -80 20 -22 6 -57 13 -77 14 l-38 3 -1 -42 -2 -41 -7 49 c-3 28 -12 52 -18 54 -18 6 -4 22 19 22 10 0 27 -4 37 -9 31 -16 88 -31 115 -31 15 0 27 -4 27 -9 0 -10 47 -20 133 -28 31 -2 55 -9 51 -14 -3 -5 4 -9 15 -9 11 0 23 -4 26 -10 3 -5 33 -10 66 -10 62 0 89 13 89 44 0 9 5 16 11 16 5 0 7 4 4 10 -3 5 1 10 9 10 20 0 20 -27 1 -74 -8 -20 -11 -36 -6 -36 6 0 12 4 15 9 3 5 15 7 26 4 18 -5 25 5 21 30 -1 5 3 6 8 3 5 -4 19 4 30 16 25 26 28 80 5 102 -44 44 -84 42 -84 -5 0 -27 -20 -43 -20 -16 -1 6 0 188 0 404 1 385 0 392 -22 437 -12 25 -27 46 -33 46 -5 0 -16 9 -23 20 -7 11 -21 20 -32 20 -11 0 -20 5 -20 10 0 6 -9 10 -20 10 -11 0 -30 5 -43 12 -46 24 -57 28 -72 28 -8 0 -30 9 -50 20 -20 11 -47 20 -60 20 -14 0 -25 5 -25 10 0 6 -11 10 -24 10 -14 0 -27 4 -30 8 -3 4 -28 14 -55 22 -28 7 -51 17 -51 22 0 4 -11 8 -25 8 -13 0 -39 9 -57 20 -18 11 -43 20 -55 20 -13 0 -23 5 -23 10 0 6 -13 10 -28 10 -15 0 -32 4 -37 8 -6 5 -29 15 -52 22 -24 7 -43 17 -43 22 0 17 -86 8 -107 -12z m293 -170 c6 0 20 -8 32 -17 11 -10 30 -26 41 -35 27 -23 50 -109 48 -185 -1 -35 0 -63 2 -63 4 0 98 58 116 72 59 46 119 78 145 78 84 0 170 -103 155 -184 -5 -27 -17 -39 -63 -66 -72 -42 -173 -100 -191 -109 -8 -4 -16 -12 -18 -17 -2 -6 52 -68 119 -138 68 -71 131 -144 141 -163 48 -91 -40 -177 -131 -129 -29 16 -248 245 -245 257 1 4 -4 10 -12 13 -12 4 -15 -3 -15 -33 0 -59 -10 -98 -33 -121 -16 -19 -28 -21 -67 -18 -57 6 -97 34 -122 86 -15 33 -17 74 -18 372 0 184 3 344 6 356 7 26 53 55 79 49 11 -3 25 -5 31 -5z m304 -1120 c11 -7 2 -10 -32 -10 -27 0 -48 5 -48 10 0 13 60 13 80 0z m148 -41 c2 -5 17 -9 33 -9 16 0 29 -4 29 -10 0 -5 -13 -10 -30 -10 -16 0 -30 5 -30 10 0 6 -10 10 -22 10 -13 0 -32 8 -43 16 -19 14 -17 15 20 8 22 -4 42 -11 43 -15z m-48 -20 c0 -5 -11 -9 -25 -9 -28 0 -34 16 -7 23 20 4 32 -1 32 -14z m182 -16 c-10 -4 -10 -8 -1 -19 9 -11 8 -14 -3 -14 -8 0 -17 3 -21 6 -10 11 5 34 22 33 11 0 12 -2 3 -6z"/>
 <path d="M1030 2287 c-24 -12 -49 -29 -75 -54 -8 -7 -16 -13 -19 -13 -6 0 -36 -24 -61 -47 -8 -7 -16 -13 -20 -13 -3 0 -16 -10 -29 -22 -33 -33 -65 -58 -72 -58 -4 0 -29 -19 -57 -42 -29 -24 -60 -50 -71 -58 -34 -27 -71 -64 -93 -97 -44 -62 -53 -108 -53 -275 l0 -156 22 6 c13 3 31 13 40 22 10 9 31 23 46 31 15 8 35 21 45 30 23 20 88 32 133 23 35 -6 75 -41 154 -133 25 -28 61 -69 80 -90 51 -56 60 -69 60 -83 1 -7 7 -24 14 -37 13 -23 13 -23 29 18 15 37 17 100 17 541 0 483 -1 500 -19 510 -24 12 -39 12 -71 -3z"/>
 <path d="M1590 872 c0 -18 5 -32 10 -32 6 0 8 11 4 28 -10 39 -14 40 -14 4z"/>
 <path d="M537 836 c-69 -37 -91 -92 -67 -162 26 -75 176 -99 237 -38 8 8 18 12 21 9 3 -3 14 -62 23 -130 11 -81 23 -130 33 -141 9 -8 16 -20 16 -25 0 -5 23 -9 51 -9 44 0 55 4 87 35 20 20 49 38 65 42 33 7 34 14 5 39 -58 49 -90 54 -140 24 -43 -26 -58 -25 -58 3 0 39 -49 267 -64 295 -26 50 -53 66 -119 70 -42 2 -71 -2 -90 -12z"/>
 </g>
<g id="layer104" fill="#4cabbc" stroke="none">
 <path d="M1173 2300 c-12 -11 -25 -38 -28 -62 -4 -24 -5 -250 -3 -503 l3 -461 28 -27 c15 -16 27 -31 27 -35 0 -12 52 -32 82 -32 15 0 28 -4 28 -8 0 -4 32 -16 70 -26 76 -19 92 -34 33 -29 -23 1 -1 -7 52 -22 50 -13 95 -23 100 -21 6 3 4 5 -3 5 -21 1 -3 21 19 21 10 0 27 -4 37 -9 31 -16 88 -31 115 -31 15 0 27 -4 27 -9 0 -10 47 -20 133 -28 31 -2 55 -9 51 -14 -3 -5 4 -9 15 -9 11 0 23 -4 26 -10 3 -5 33 -10 66 -10 62 0 89 13 89 44 0 9 5 16 11 16 5 0 7 4 4 10 -3 5 1 10 9 10 8 0 17 -8 19 -17 3 -10 4 9 4 42 0 33 -2 45 -4 28 -4 -31 -23 -47 -23 -20 -1 6 0 188 0 404 1 385 0 392 -22 437 -12 25 -27 46 -33 46 -5 0 -16 9 -23 20 -7 11 -21 20 -32 20 -11 0 -20 5 -20 10 0 6 -9 10 -20 10 -11 0 -30 5 -43 12 -46 24 -57 28 -72 28 -8 0 -30 9 -50 20 -20 11 -47 20 -60 20 -14 0 -25 5 -25 10 0 6 -11 10 -24 10 -14 0 -27 4 -30 8 -3 4 -28 14 -55 22 -28 7 -51 17 -51 22 0 4 -11 8 -25 8 -13 0 -39 9 -57 20 -18 11 -43 20 -55 20 -13 0 -23 5 -23 10 0 6 -13 10 -28 10 -15 0 -32 4 -37 8 -6 5 -29 15 -52 22 -24 7 -43 17 -43 22 0 17 -86 8 -107 -12z m308 -174 c74 -31 109 -98 109 -211 0 -41 3 -75 6 -75 4 0 58 34 120 76 103 69 117 76 150 71 94 -16 174 -143 134 -217 -10 -18 -77 -62 -170 -112 -25 -13 -57 -32 -72 -42 l-27 -18 117 -120 c64 -66 127 -136 139 -156 41 -67 26 -136 -37 -162 -51 -21 -105 7 -186 98 -38 42 -93 102 -121 132 l-53 55 0 -51 c0 -116 -51 -159 -141 -119 -46 20 -76 47 -91 81 -14 35 -24 488 -13 642 6 86 10 106 28 123 25 23 62 24 108 5z"/>
 <path d="M1030 2287 c-14 -6 -34 -20 -44 -29 -11 -10 -24 -18 -29 -18 -5 0 -7 -7 -4 -14 4 -10 1 -13 -8 -10 -12 5 -33 -8 -70 -43 -8 -7 -16 -13 -20 -13 -3 0 -16 -10 -29 -22 -33 -32 -65 -58 -72 -58 -3 0 -25 -16 -49 -36 -30 -24 -42 -41 -38 -52 4 -13 3 -14 -5 -3 -8 11 -13 10 -30 -5 -16 -14 -18 -20 -9 -27 8 -5 4 -6 -9 -3 -22 7 -66 -34 -60 -56 1 -7 1 -9 -2 -5 -2 4 -15 -7 -29 -25 -18 -24 -23 -41 -19 -63 4 -19 3 -25 -3 -17 -16 26 -21 -16 -21 -178 0 -158 0 -158 22 -152 33 8 59 34 48 47 -7 8 -5 12 5 12 8 0 11 -5 8 -10 -3 -5 0 -7 8 -3 8 3 22 9 32 12 12 5 16 13 12 28 -5 15 -4 17 3 7 9 -13 36 -6 28 7 -4 6 78 9 130 4 23 -2 71 -46 144 -131 25 -28 61 -69 80 -90 51 -56 60 -69 60 -83 1 -7 7 -24 14 -37 13 -23 13 -23 29 18 15 37 17 100 17 541 0 483 -1 500 -19 510 -24 12 -39 12 -71 -3z"/>
 <path d="M653 1520 c-18 -11 -33 -24 -33 -29 0 -6 -16 -13 -35 -17 -20 -3 -35 -12 -35 -20 0 -9 -11 -14 -30 -14 -18 0 -33 -7 -39 -18 -5 -10 -25 -24 -45 -32 -20 -7 -36 -17 -36 -22 0 -4 -7 -8 -15 -8 -8 0 -15 -4 -15 -10 0 -5 -8 -10 -18 -10 -10 0 -24 -9 -32 -20 -8 -11 -20 -20 -27 -20 -7 0 -13 -4 -13 -10 0 -5 -6 -10 -14 -10 -14 0 -26 -29 -26 -63 0 -9 11 -27 25 -39 14 -12 25 -30 25 -40 0 -10 7 -18 15 -18 8 0 15 -5 15 -10 0 -19 94 -110 113 -110 11 0 32 -9 49 -21 16 -12 39 -21 51 -21 59 1 90 9 103 27 8 10 14 15 14 11 0 -5 9 2 21 15 14 17 19 19 15 7 -4 -14 -1 -16 17 -9 12 5 84 34 160 65 76 31 144 56 152 56 7 0 17 5 21 11 4 8 -1 9 -17 3 -13 -4 -32 -7 -41 -6 -10 0 -18 -3 -18 -7 0 -5 -9 -11 -19 -14 -14 -3 -18 -1 -14 9 3 8 8 14 12 14 4 0 18 10 30 21 19 18 25 19 32 8 7 -11 11 -11 21 4 15 20 12 107 -4 107 -5 0 -16 7 -24 15 -9 8 -12 15 -9 15 4 0 -7 13 -24 29 -17 16 -31 34 -31 40 0 7 -8 15 -17 18 -25 10 -45 31 -39 42 3 4 -18 29 -46 55 -45 41 -56 46 -97 46 -28 0 -59 -8 -78 -20z"/>
 <path d="M1148 1153 c17 -2 47 -2 65 0 17 2 3 4 -33 4 -36 0 -50 -2 -32 -4z"/>
 <path d="M2265 1078 c4 -44 2 -48 -37 -82 -22 -20 -36 -36 -29 -36 6 0 26 16 45 36 34 37 45 83 25 115 -5 8 -6 -4 -4 -33z"/>
 <path d="M1574 940 c0 -69 2 -92 3 -52 2 39 8 72 13 72 6 0 9 24 8 53 l-1 52 -7 -45 -6 -45 -5 45 c-3 25 -5 -11 -5 -80z"/>
 <path d="M1172 1018 c-35 -12 -82 -51 -82 -68 0 -7 7 -5 16 4 25 25 26 19 4 -24 -11 -21 -20 -52 -20 -68 0 -78 72 -171 152 -198 27 -9 46 -19 43 -23 -4 -3 -34 -37 -68 -75 -34 -37 -77 -85 -95 -105 -18 -20 -37 -52 -44 -73 -9 -31 -8 -43 11 -81 24 -50 47 -62 130 -71 35 -3 62 -13 76 -26 12 -11 25 -20 29 -20 5 0 6 32 4 70 -4 50 -11 77 -24 91 -24 27 -67 49 -94 49 -29 0 -25 21 13 66 19 21 59 73 89 114 31 41 67 89 82 105 56 65 60 159 9 223 -38 48 -50 67 -35 58 7 -4 12 -3 12 2 0 15 -91 55 -134 58 -22 2 -56 -2 -74 -8z"/>
 <path d="M1805 1010 c11 -5 27 -9 35 -9 9 0 8 4 -5 9 -11 5 -27 9 -35 9 -9 0 -8 -4 5 -9z"/>
 <path d="M1875 990 c11 -5 27 -9 35 -9 9 0 8 4 -5 9 -11 5 -27 9 -35 9 -9 0 -8 -4 5 -9z"/>
 <path d="M600 921 c0 -15 54 -41 82 -40 25 1 19 4 -24 13 -15 3 -34 13 -42 22 -9 8 -16 11 -16 5z"/>
 <path d="M1592 870 c0 -19 2 -27 5 -17 2 9 2 25 0 35 -3 9 -5 1 -5 -18z"/>
 <path d="M735 870 c3 -5 25 -10 47 -10 51 0 47 5 -10 14 -29 4 -41 3 -37 -4z"/>
 <path d="M537 836 c-69 -37 -91 -92 -67 -162 26 -75 176 -99 237 -38 8 8 18 12 21 9 3 -3 14 -62 23 -130 11 -81 23 -130 33 -141 9 -8 16 -20 16 -25 0 -5 23 -9 51 -9 44 0 55 4 87 35 20 20 49 38 65 42 33 7 34 14 5 39 -58 49 -90 54 -140 24 -43 -26 -58 -25 -58 3 0 39 -49 267 -64 295 -26 50 -53 66 -119 70 -42 2 -71 -2 -90 -12z"/>
 <path d="M980 830 c8 -5 26 -9 40 -9 l25 1 -25 8 c-14 4 -32 8 -40 9 -13 1 -13 0 0 -9z"/>
 <path d="M1546 785 c-9 -14 -13 -25 -8 -25 5 0 14 11 20 25 6 14 10 25 8 25 -2 0 -11 -11 -20 -25z"/>
 <path d="M1610 793 c0 -9 40 -36 45 -31 2 2 -8 11 -21 21 -13 10 -24 14 -24 10z"/>
 <path d="M1467 748 c6 -11 41 -10 47 1 3 4 -8 8 -23 7 -16 -1 -27 -4 -24 -8z"/>
 </g>
<g id="layer105" fill="#fcca39" stroke="none">
 <path d="M1173 2300 c-12 -11 -25 -38 -28 -62 -4 -24 -5 -250 -3 -503 l3 -461 28 -27 c15 -16 27 -31 27 -35 0 -12 52 -32 82 -32 15 0 28 -4 28 -8 0 -4 32 -16 70 -26 76 -19 92 -34 33 -29 -23 1 -1 -7 52 -22 50 -13 95 -23 100 -21 6 3 4 5 -3 5 -21 1 -3 21 19 21 10 0 27 -4 37 -9 31 -16 88 -31 115 -31 15 0 27 -4 27 -9 0 -10 47 -20 133 -28 31 -2 55 -9 51 -14 -3 -5 4 -9 15 -9 11 0 23 -4 26 -10 3 -5 33 -10 66 -10 62 0 89 13 89 44 0 9 5 16 11 16 5 0 7 4 4 10 -3 5 1 10 9 10 8 0 17 -8 19 -17 3 -10 4 9 4 42 0 33 -2 45 -4 28 -4 -31 -23 -47 -23 -20 -1 6 0 188 0 404 1 385 0 392 -22 437 -12 25 -27 46 -33 46 -5 0 -16 9 -23 20 -7 11 -21 20 -32 20 -11 0 -20 5 -20 10 0 6 -9 10 -20 10 -11 0 -30 5 -43 12 -46 24 -57 28 -72 28 -8 0 -30 9 -50 20 -20 11 -47 20 -60 20 -14 0 -25 5 -25 10 0 6 -11 10 -24 10 -14 0 -27 4 -30 8 -3 4 -28 14 -55 22 -28 7 -51 17 -51 22 0 4 -11 8 -25 8 -13 0 -39 9 -57 20 -18 11 -43 20 -55 20 -13 0 -23 5 -23 10 0 6 -13 10 -28 10 -15 0 -32 4 -37 8 -6 5 -29 15 -52 22 -24 7 -43 17 -43 22 0 17 -86 8 -107 -12z m308 -174 c74 -31 109 -98 109 -211 0 -41 3 -75 6 -75 4 0 58 34 120 76 103 69 117 76 150 71 94 -16 174 -143 134 -217 -10 -18 -77 -62 -170 -112 -25 -13 -57 -32 -72 -42 l-27 -18 117 -120 c64 -66 127 -136 139 -156 41 -67 26 -136 -37 -162 -51 -21 -105 7 -186 98 -38 42 -93 102 -121 132 l-53 55 0 -51 c0 -116 -51 -159 -141 -119 -46 20 -76 47 -91 81 -14 35 -24 488 -13 642 6 86 10 106 28 123 25 23 62 24 108 5z"/>
 <path d="M1030 2287 c-14 -6 -34 -20 -44 -29 -11 -10 -24 -18 -29 -18 -5 0 -7 -7 -4 -14 4 -10 1 -13 -8 -10 -12 5 -33 -8 -70 -43 -8 -7 -16 -13 -20 -13 -3 0 -16 -10 -29 -22 -33 -32 -65 -58 -72 -58 -3 0 -25 -16 -49 -36 -30 -24 -42 -41 -38 -52 4 -13 3 -14 -5 -3 -8 11 -13 10 -30 -5 -16 -14 -18 -20 -9 -27 8 -5 4 -6 -9 -3 -22 7 -66 -34 -60 -56 1 -7 1 -9 -2 -5 -2 4 -15 -7 -29 -25 -18 -24 -23 -41 -19 -63 4 -19 3 -25 -3 -17 -16 26 -21 -16 -21 -178 0 -158 0 -158 22 -152 33 8 59 34 48 47 -7 8 -5 12 5 12 8 0 11 -5 8 -10 -3 -5 0 -7 8 -3 8 3 22 9 32 12 12 5 16 13 12 28 -5 15 -4 17 3 7 9 -13 36 -6 28 7 -4 6 78 9 130 4 23 -2 71 -46 144 -131 25 -28 61 -69 80 -90 51 -56 60 -69 60 -83 1 -7 7 -24 14 -37 13 -23 13 -23 29 18 15 37 17 100 17 541 0 483 -1 500 -19 510 -24 12 -39 12 -71 -3z"/>
 <path d="M653 1520 c-18 -11 -33 -24 -33 -29 0 -6 -16 -13 -35 -17 -20 -3 -35 -12 -35 -20 0 -9 -11 -14 -30 -14 -18 0 -33 -7 -39 -18 -5 -10 -25 -24 -45 -32 -20 -7 -36 -17 -36 -22 0 -4 -7 -8 -15 -8 -8 0 -15 -4 -15 -10 0 -5 -8 -10 -18 -10 -10 0 -24 -9 -32 -20 -8 -11 -20 -20 -27 -20 -7 0 -13 -4 -13 -10 0 -5 -6 -10 -14 -10 -14 0 -26 -29 -26 -63 0 -9 11 -27 25 -39 14 -12 25 -30 25 -40 0 -10 7 -18 15 -18 8 0 15 -5 15 -10 0 -19 94 -110 113 -110 11 0 32 -9 49 -21 16 -12 39 -21 51 -21 59 1 90 9 103 27 8 10 14 15 14 11 0 -5 9 2 21 15 14 17 19 19 15 7 -4 -14 -1 -16 17 -9 12 5 84 34 160 65 76 31 144 56 152 56 7 0 17 5 21 11 4 8 -1 9 -17 3 -13 -4 -32 -7 -41 -6 -10 0 -18 -3 -18 -7 0 -5 -9 -11 -19 -14 -14 -3 -18 -1 -14 9 3 8 8 14 12 14 4 0 18 10 30 21 19 18 25 19 32 8 7 -11 11 -11 21 4 15 20 12 107 -4 107 -5 0 -16 7 -24 15 -9 8 -12 15 -9 15 4 0 -7 13 -24 29 -17 16 -31 34 -31 40 0 7 -8 15 -17 18 -25 10 -45 31 -39 42 3 4 -18 29 -46 55 -45 41 -56 46 -97 46 -28 0 -59 -8 -78 -20z"/>
 <path d="M1148 1153 c17 -2 47 -2 65 0 17 2 3 4 -33 4 -36 0 -50 -2 -32 -4z"/>
 <path d="M2265 1078 c4 -44 2 -48 -37 -82 -22 -20 -36 -36 -29 -36 6 0 26 16 45 36 34 37 45 83 25 115 -5 8 -6 -4 -4 -33z"/>
 <path d="M1574 940 c0 -69 2 -92 3 -52 2 39 8 72 13 72 6 0 9 24 8 53 l-1 52 -7 -45 -6 -45 -5 45 c-3 25 -5 -11 -5 -80z"/>
 <path d="M1172 1018 c-35 -12 -82 -51 -82 -68 0 -7 7 -5 16 4 21 21 27 20 15 -3 -6 -10 -7 -21 -4 -25 3 -3 1 -6 -6 -6 -7 0 -9 -4 -6 -10 3 -5 1 -10 -4 -10 -16 0 -13 -29 4 -46 17 -17 20 -34 6 -34 -5 0 -12 8 -14 18 -4 15 -5 15 -6 0 0 -9 5 -23 12 -30 8 -7 12 -19 10 -25 -3 -7 17 -34 42 -60 26 -27 44 -41 40 -33 -5 13 -5 13 7 0 7 -9 21 -14 32 -12 13 3 16 0 11 -10 -6 -10 -5 -11 6 0 18 17 30 15 23 -3 -4 -9 -1 -15 7 -15 7 0 0 -14 -17 -32 -16 -18 -21 -26 -11 -19 30 24 21 7 -33 -57 -6 -7 -15 -10 -19 -8 -5 3 -19 -6 -32 -21 -13 -14 -19 -23 -12 -19 6 3 14 2 18 -4 3 -5 -1 -10 -9 -10 -9 0 -16 -6 -16 -12 0 -9 -4 -8 -10 2 -5 8 -10 11 -11 5 -3 -24 -5 -31 -13 -53 -5 -15 -13 -21 -23 -18 -11 4 -13 2 -9 -9 3 -8 1 -15 -4 -15 -6 0 -10 -10 -10 -22 0 -19 2 -20 11 -8 8 11 9 8 4 -13 -4 -20 -2 -27 6 -22 6 4 15 1 20 -6 14 -23 10 -32 -8 -18 -17 13 -17 13 -3 -6 21 -28 31 -34 48 -27 11 4 13 1 7 -7 -6 -10 -3 -11 13 -2 26 14 35 14 27 1 -6 -10 26 -15 74 -12 13 0 21 -2 17 -5 -7 -7 23 -43 36 -43 4 0 8 10 7 23 0 20 -1 20 -8 3 -5 -12 -10 -15 -14 -9 -4 6 0 24 8 39 18 35 21 68 4 44 -8 -11 -9 -8 -5 16 4 24 0 36 -17 51 -27 25 -61 43 -79 43 -7 0 5 -9 27 -19 50 -22 72 -46 51 -54 -10 -4 -13 -1 -10 8 4 9 -10 21 -41 35 -71 32 -72 53 -8 117 42 42 52 59 47 75 -4 15 -3 18 7 13 9 -6 11 -3 5 10 -5 15 -4 16 9 5 9 -7 15 -9 14 -4 -4 23 2 35 14 28 8 -5 8 -2 -2 9 -12 15 -11 17 2 17 16 0 49 28 77 64 12 15 12 18 1 12 -9 -6 -12 -5 -9 5 3 8 11 13 18 11 11 -3 11 0 0 12 -10 14 -10 16 5 16 15 0 17 8 13 55 -3 31 -10 61 -17 68 -10 9 -10 6 -2 -15 7 -18 7 -28 1 -28 -9 0 -15 29 -11 58 1 8 -7 16 -17 19 -11 3 -22 16 -25 29 -2 13 0 21 4 18 5 -3 9 -1 9 4 0 15 -91 55 -134 58 -22 2 -56 -2 -74 -8z m168 -208 c0 -5 -7 -10 -15 -10 -8 0 -15 5 -15 10 0 6 7 10 15 10 8 0 15 -4 15 -10z"/>
 <path d="M1805 1010 c11 -5 27 -9 35 -9 9 0 8 4 -5 9 -11 5 -27 9 -35 9 -9 0 -8 -4 5 -9z"/>
 <path d="M1875 990 c11 -5 27 -9 35 -9 9 0 8 4 -5 9 -11 5 -27 9 -35 9 -9 0 -8 -4 5 -9z"/>
 <path d="M600 921 c0 -15 54 -41 82 -40 25 1 19 4 -24 13 -15 3 -34 13 -42 22 -9 8 -16 11 -16 5z"/>
 <path d="M1592 870 c0 -19 2 -27 5 -17 2 9 2 25 0 35 -3 9 -5 1 -5 -18z"/>
 <path d="M735 870 c3 -5 25 -10 47 -10 51 0 47 5 -10 14 -29 4 -41 3 -37 -4z"/>
 <path d="M537 836 c-70 -38 -91 -92 -66 -164 10 -28 40 -50 62 -44 5 1 6 -2 3 -7 -8 -12 18 -21 64 -21 45 0 85 13 107 36 22 21 29 7 38 -76 4 -36 10 -69 12 -73 3 -5 6 -28 7 -51 1 -26 9 -50 19 -60 9 -10 17 -22 17 -27 0 -5 22 -9 50 -9 51 0 95 23 83 44 -3 6 -3 8 2 4 4 -4 19 2 33 12 13 11 33 20 43 20 25 0 24 12 -3 36 -53 45 -97 55 -130 30 -10 -7 -16 -15 -14 -17 2 -2 -8 -5 -24 -6 -27 -2 -28 0 -34 56 -4 32 -10 61 -13 65 -3 3 -8 21 -10 38 -7 67 -25 138 -34 133 -5 -3 -6 1 -3 9 3 8 -8 29 -24 47 -26 30 -36 33 -93 36 -44 3 -73 -1 -92 -11z"/>
 <path d="M980 830 c8 -5 26 -9 40 -9 l25 1 -25 8 c-14 4 -32 8 -40 9 -13 1 -13 0 0 -9z"/>
 <path d="M1546 785 c-9 -14 -13 -25 -8 -25 5 0 14 11 20 25 6 14 10 25 8 25 -2 0 -11 -11 -20 -25z"/>
 <path d="M1610 793 c0 -9 40 -36 45 -31 2 2 -8 11 -21 21 -13 10 -24 14 -24 10z"/>
 <path d="M1467 748 c6 -11 41 -10 47 1 3 4 -8 8 -23 7 -16 -1 -27 -4 -24 -8z"/>
 </g>
<g id="layer106" fill="#5dbced" stroke="none">
 <path d="M1173 2300 c-12 -11 -25 -38 -28 -62 -4 -24 -5 -250 -3 -503 l3 -461 28 -27 c15 -16 27 -31 27 -35 0 -12 52 -32 82 -32 15 0 28 -4 28 -8 0 -4 32 -16 70 -26 67 -17 99 -39 43 -28 -16 2 -25 2 -22 -2 9 -10 161 -48 167 -41 3 3 0 5 -7 5 -7 0 -9 5 -6 10 8 12 39 13 63 1 31 -16 88 -31 115 -31 15 0 27 -4 27 -9 0 -10 47 -20 133 -28 31 -2 55 -9 51 -14 -3 -5 4 -9 15 -9 11 0 23 -4 26 -10 3 -5 33 -10 66 -10 62 0 89 13 89 44 0 9 5 16 11 16 5 0 7 4 4 10 -3 5 1 10 9 10 8 0 17 -8 19 -17 3 -10 4 9 4 42 0 33 -2 45 -4 28 -4 -31 -23 -47 -23 -20 -1 6 0 188 0 404 1 385 0 392 -22 437 -12 25 -27 46 -33 46 -5 0 -16 9 -23 20 -7 11 -21 20 -32 20 -11 0 -20 5 -20 10 0 6 -9 10 -20 10 -11 0 -30 5 -43 12 -46 24 -57 28 -72 28 -8 0 -30 9 -50 20 -20 11 -47 20 -60 20 -14 0 -25 5 -25 10 0 6 -11 10 -24 10 -14 0 -27 4 -30 8 -3 4 -28 14 -55 22 -28 7 -51 17 -51 22 0 4 -11 8 -25 8 -13 0 -39 9 -57 20 -18 11 -43 20 -55 20 -13 0 -23 5 -23 10 0 6 -13 10 -28 10 -15 0 -32 4 -37 8 -6 5 -29 15 -52 22 -24 7 -43 17 -43 22 0 17 -86 8 -107 -12z m308 -174 c74 -31 109 -98 109 -211 0 -41 3 -75 6 -75 4 0 58 34 120 76 103 69 117 76 150 71 94 -16 174 -143 134 -217 -10 -18 -77 -62 -170 -112 -25 -13 -57 -32 -72 -42 l-27 -18 117 -120 c64 -66 127 -136 139 -156 41 -67 26 -136 -37 -162 -51 -21 -105 7 -186 98 -38 42 -93 102 -121 132 l-53 55 0 -51 c0 -116 -51 -159 -141 -119 -46 20 -76 47 -91 81 -14 35 -24 488 -13 642 6 86 10 106 28 123 25 23 62 24 108 5z"/>
 <path d="M1030 2287 c-14 -6 -34 -20 -45 -30 l-20 -19 20 4 c11 1 29 11 39 21 21 18 51 24 41 7 -3 -5 3 -10 15 -10 12 0 18 -4 15 -10 -3 -5 1 -10 9 -10 23 0 20 37 -3 50 -24 12 -39 12 -71 -3z"/>
 <path d="M950 2230 c0 -5 -7 -10 -15 -10 -8 0 -15 -4 -15 -8 0 -5 -11 -15 -25 -22 -28 -15 -33 -30 -10 -30 8 0 20 9 27 20 7 11 20 20 28 20 9 0 16 9 17 20 1 11 0 20 -3 20 -2 0 -4 -4 -4 -10z"/>
 <path d="M831 2141 c-8 -11 -25 -25 -38 -32 -26 -14 -30 -29 -8 -29 8 0 15 5 15 10 0 6 6 10 14 10 8 0 18 9 21 20 3 11 11 20 16 20 5 0 9 5 9 10 0 16 -14 12 -29 -9z"/>
 <path d="M719 2057 c-14 -12 -45 -39 -70 -59 -24 -21 -38 -38 -31 -38 7 0 23 10 36 23 33 31 65 57 72 57 7 0 34 27 34 34 0 12 -15 5 -41 -17z"/>
 <path d="M733 1985 c-18 -20 -16 -25 7 -25 13 0 20 7 20 20 0 23 -10 25 -27 5z"/>
 <path d="M582 1948 c-16 -16 -15 -28 3 -28 8 0 15 5 15 10 0 6 8 10 18 10 14 0 15 2 2 10 -19 13 -24 12 -38 -2z"/>
 <path d="M670 1930 c-12 -8 -11 -10 8 -10 12 0 22 5 22 10 0 13 -11 13 -30 0z"/>
 <path d="M531 1880 c-44 -70 -51 -106 -51 -272 l0 -156 22 6 c13 3 31 13 40 22 10 9 31 23 46 31 15 8 35 21 45 30 23 20 88 32 133 23 35 -6 75 -41 154 -133 25 -28 61 -69 80 -90 51 -56 60 -69 60 -83 1 -7 7 -24 14 -37 13 -23 13 -23 29 18 19 47 24 97 7 71 -5 -8 -10 -27 -10 -42 0 -40 -14 -35 -35 12 -10 22 -23 40 -28 40 -6 0 -8 3 -4 6 7 8 -17 34 -32 34 -6 0 -11 4 -11 10 0 5 -13 22 -30 37 -17 15 -30 36 -30 50 0 16 -6 23 -20 23 -11 0 -19 4 -18 9 4 12 -58 71 -74 71 -9 0 -8 3 2 10 11 7 2 10 -33 10 -30 0 -46 4 -42 10 3 6 -3 10 -14 10 -12 0 -21 -4 -21 -10 0 -5 -16 -10 -36 -10 -21 0 -33 -4 -29 -10 3 -5 -1 -10 -9 -10 -9 0 -16 -4 -16 -10 0 -5 -5 -10 -11 -10 -6 0 -17 -7 -26 -15 -8 -8 -19 -12 -25 -9 -6 4 -8 2 -5 -3 8 -12 -39 -27 -54 -17 -6 4 -2 14 10 25 24 22 25 28 11 49 -9 13 -10 13 -10 0 0 -11 -3 -10 -11 4 -8 13 -8 20 1 26 8 5 11 37 9 106 -3 92 -1 103 25 152 34 62 31 77 -3 22z"/>
 <path d="M540 1590 c0 -5 14 -10 30 -10 17 0 30 5 30 10 0 6 -13 10 -30 10 -16 0 -30 -4 -30 -10z"/>
 <path d="M653 1520 c-18 -11 -33 -24 -33 -29 0 -6 -16 -13 -35 -17 -20 -3 -35 -12 -35 -20 0 -9 -11 -14 -30 -14 -18 0 -33 -7 -39 -18 -5 -10 -25 -24 -45 -32 -20 -7 -36 -17 -36 -22 0 -4 -7 -8 -15 -8 -8 0 -15 -4 -15 -10 0 -5 -8 -10 -18 -10 -10 0 -24 -9 -32 -20 -8 -11 -20 -20 -27 -20 -7 0 -13 -4 -13 -10 0 -5 -6 -10 -14 -10 -14 0 -26 -29 -26 -63 0 -9 11 -27 25 -39 14 -12 25 -30 25 -40 0 -10 7 -18 15 -18 8 0 15 -5 15 -10 0 -19 94 -110 113 -110 11 0 32 -9 49 -21 41 -29 112 -27 149 4 10 9 19 14 19 11 0 -4 9 4 21 17 15 17 19 19 15 6 -5 -16 -3 -16 32 -1 20 9 100 41 177 71 130 51 184 76 125 58 -14 -5 -33 -8 -42 -7 -10 0 -18 -3 -18 -7 0 -5 -9 -11 -19 -14 -14 -3 -18 -1 -14 9 3 8 8 14 12 14 4 0 18 10 30 21 19 18 25 19 32 8 7 -11 11 -11 21 4 15 20 12 107 -4 107 -5 0 -16 7 -24 15 -9 8 -12 15 -9 15 4 0 -7 13 -24 29 -17 16 -31 34 -31 40 0 7 -8 15 -17 18 -25 10 -45 31 -39 42 3 4 -18 29 -46 55 -45 41 -56 46 -97 46 -28 0 -59 -8 -78 -20z"/>
 <path d="M1100 1390 c0 -16 5 -30 10 -30 6 0 10 14 10 30 0 17 -4 30 -10 30 -5 0 -10 -13 -10 -30z"/>
 <path d="M1148 1153 c17 -2 47 -2 65 0 17 2 3 4 -33 4 -36 0 -50 -2 -32 -4z"/>
 <path d="M1574 940 c0 -69 2 -92 3 -52 2 39 8 72 13 72 6 0 9 24 8 53 l-1 52 -7 -45 -6 -45 -5 45 c-3 25 -5 -11 -5 -80z"/>
 <path d="M2270 1046 c0 -7 -18 -30 -40 -50 -22 -20 -36 -36 -30 -36 14 0 80 72 80 87 0 7 -2 13 -5 13 -3 0 -5 -6 -5 -14z"/>
 <path d="M1145 1002 c-36 -22 -60 -50 -51 -59 3 -3 6 -2 6 4 0 6 7 13 15 17 12 4 13 2 6 -13 -6 -10 -7 -21 -4 -25 3 -3 1 -6 -6 -6 -7 0 -9 -4 -6 -10 3 -5 1 -10 -4 -10 -16 0 -13 -29 4 -46 17 -17 20 -34 6 -34 -5 0 -12 8 -14 18 -4 15 -5 15 -6 0 0 -9 5 -23 12 -30 8 -7 12 -19 10 -25 -3 -7 17 -34 42 -60 26 -27 44 -41 40 -33 -5 13 -5 13 7 0 7 -9 21 -14 32 -12 13 3 16 0 11 -10 -6 -10 -5 -11 6 0 18 17 30 15 23 -3 -4 -9 -1 -15 7 -15 7 0 0 -14 -17 -32 -16 -18 -21 -26 -11 -19 30 24 21 7 -33 -57 -6 -7 -15 -10 -19 -8 -5 3 -19 -6 -32 -21 -13 -14 -19 -23 -12 -19 6 3 14 2 18 -4 3 -5 -1 -10 -9 -10 -9 0 -16 -6 -16 -12 0 -9 -4 -8 -10 2 -5 8 -10 11 -11 5 -3 -24 -5 -31 -13 -53 -5 -15 -13 -21 -23 -18 -11 4 -13 2 -9 -9 3 -8 1 -15 -4 -15 -6 0 -10 -10 -10 -22 0 -19 2 -20 11 -8 8 11 9 8 4 -13 -4 -20 -2 -27 6 -22 6 4 15 1 20 -6 14 -23 10 -32 -8 -18 -17 13 -17 13 -3 -6 21 -28 31 -34 48 -27 11 4 13 1 7 -7 -6 -10 -3 -11 13 -2 26 14 35 14 27 1 -6 -10 26 -15 74 -12 13 0 21 -2 17 -5 -7 -7 23 -43 36 -43 4 0 8 10 7 23 0 20 -1 20 -8 3 -5 -12 -10 -15 -14 -9 -4 6 0 24 8 39 18 35 21 68 4 44 -8 -11 -9 -8 -5 16 4 24 0 36 -17 51 -27 25 -61 43 -79 43 -7 0 5 -9 27 -19 50 -22 72 -46 51 -54 -10 -4 -13 -1 -10 8 4 9 -10 21 -41 35 -71 32 -72 53 -8 117 42 42 52 59 47 75 -4 15 -3 18 7 13 9 -6 11 -3 5 10 -5 15 -4 16 9 5 9 -7 15 -9 14 -4 -4 23 2 35 14 28 8 -5 8 -2 -2 9 -12 15 -11 17 2 17 16 0 49 28 77 64 12 15 12 18 1 12 -9 -6 -12 -5 -9 5 3 8 11 13 18 11 11 -3 11 0 0 12 -10 14 -10 16 5 16 15 0 17 8 13 55 -3 31 -10 61 -17 68 -10 9 -10 6 -2 -15 7 -18 7 -28 1 -28 -9 0 -15 29 -11 58 1 8 -7 16 -17 19 -11 3 -22 16 -25 29 -2 13 0 21 4 18 5 -3 9 -1 9 3 0 5 -20 19 -45 31 -58 28 -147 30 -190 4z m195 -192 c0 -5 -7 -10 -15 -10 -8 0 -15 5 -15 10 0 6 7 10 15 10 8 0 15 -4 15 -10z"/>
 <path d="M1805 1010 c11 -5 27 -9 35 -9 9 0 8 4 -5 9 -11 5 -27 9 -35 9 -9 0 -8 -4 5 -9z"/>
 <path d="M1875 990 c11 -5 27 -9 35 -9 9 0 8 4 -5 9 -11 5 -27 9 -35 9 -9 0 -8 -4 5 -9z"/>
 <path d="M600 921 c0 -15 54 -41 82 -40 25 1 19 4 -24 13 -15 3 -34 13 -42 22 -9 8 -16 11 -16 5z"/>
 <path d="M1592 870 c0 -19 2 -27 5 -17 2 9 2 25 0 35 -3 9 -5 1 -5 -18z"/>
 <path d="M735 871 c3 -6 22 -11 42 -11 44 0 41 5 -10 14 -27 5 -37 4 -32 -3z"/>
 <path d="M537 836 c-70 -38 -91 -92 -66 -164 10 -28 40 -50 62 -44 5 1 6 -2 3 -7 -8 -12 18 -21 64 -21 45 0 85 13 107 36 22 21 29 7 38 -76 4 -36 10 -69 12 -73 3 -5 6 -28 7 -51 1 -26 9 -50 19 -60 9 -10 17 -22 17 -27 0 -5 22 -9 50 -9 51 0 95 23 83 44 -3 6 -3 8 2 4 4 -4 19 2 33 12 13 11 33 20 43 20 25 0 24 12 -3 36 -53 45 -97 55 -130 30 -10 -7 -16 -15 -14 -17 2 -2 -8 -5 -24 -6 -27 -2 -28 0 -34 56 -4 32 -10 61 -13 65 -3 3 -8 21 -10 38 -7 67 -25 138 -34 133 -5 -3 -6 1 -3 9 3 8 -8 29 -24 47 -26 30 -36 33 -93 36 -44 3 -73 -1 -92 -11z"/>
 <path d="M980 830 c8 -5 26 -9 40 -9 l25 1 -25 8 c-14 4 -32 8 -40 9 -13 1 -13 0 0 -9z"/>
 <path d="M1546 785 c-9 -14 -13 -25 -8 -25 5 0 14 11 20 25 6 14 10 25 8 25 -2 0 -11 -11 -20 -25z"/>
 <path d="M1610 793 c0 -9 40 -36 45 -31 2 2 -8 11 -21 21 -13 10 -24 14 -24 10z"/>
 <path d="M1467 748 c6 -11 41 -10 47 1 3 4 -8 8 -23 7 -16 -1 -27 -4 -24 -8z"/>
 </g>
<g id="layer107" fill="#fce385" stroke="none">
 <path d="M1173 2300 c-12 -11 -25 -38 -28 -62 -4 -24 -5 -250 -3 -503 l3 -461 28 -27 c15 -16 27 -31 27 -35 0 -12 52 -32 82 -32 15 0 28 -4 28 -8 0 -4 32 -16 70 -26 67 -17 99 -39 43 -28 -16 2 -25 2 -22 -2 9 -10 161 -48 167 -41 3 3 0 5 -7 5 -7 0 -9 5 -6 10 8 12 39 13 63 1 31 -16 88 -31 115 -31 15 0 27 -4 27 -9 0 -10 47 -20 133 -28 31 -2 55 -9 51 -14 -3 -5 4 -9 15 -9 11 0 23 -4 26 -10 3 -5 33 -10 66 -10 62 0 89 13 89 44 0 9 5 16 11 16 5 0 7 4 4 10 -3 5 1 10 9 10 8 0 17 -8 19 -17 3 -10 4 9 4 42 0 33 -2 45 -4 28 -4 -31 -23 -47 -23 -20 -1 6 0 188 0 404 1 385 0 392 -22 437 -12 25 -27 46 -33 46 -5 0 -16 9 -23 20 -7 11 -21 20 -32 20 -11 0 -20 5 -20 10 0 6 -9 10 -20 10 -11 0 -30 5 -43 12 -46 24 -57 28 -72 28 -8 0 -30 9 -50 20 -20 11 -47 20 -60 20 -14 0 -25 5 -25 10 0 6 -11 10 -24 10 -14 0 -27 4 -30 8 -3 4 -28 14 -55 22 -28 7 -51 17 -51 22 0 4 -11 8 -25 8 -13 0 -39 9 -57 20 -18 11 -43 20 -55 20 -13 0 -23 5 -23 10 0 6 -13 10 -28 10 -15 0 -32 4 -37 8 -6 5 -29 15 -52 22 -24 7 -43 17 -43 22 0 17 -86 8 -107 -12z m308 -174 c74 -31 109 -98 109 -211 0 -41 3 -75 6 -75 4 0 58 34 120 76 103 69 117 76 150 71 94 -16 174 -143 134 -217 -10 -18 -77 -62 -170 -112 -25 -13 -57 -32 -72 -42 l-27 -18 117 -120 c64 -66 127 -136 139 -156 41 -67 26 -136 -37 -162 -51 -21 -105 7 -186 98 -38 42 -93 102 -121 132 l-53 55 0 -51 c0 -116 -51 -159 -141 -119 -46 20 -76 47 -91 81 -14 35 -24 488 -13 642 6 86 10 106 28 123 25 23 62 24 108 5z"/>
 <path d="M1030 2287 c-14 -6 -34 -20 -45 -30 l-20 -19 20 4 c11 1 29 11 39 21 21 18 51 24 41 7 -3 -5 3 -10 15 -10 12 0 18 -4 15 -10 -3 -5 1 -10 9 -10 23 0 20 37 -3 50 -24 12 -39 12 -71 -3z"/>
 <path d="M950 2230 c0 -5 -7 -10 -15 -10 -8 0 -15 -4 -15 -8 0 -5 -11 -15 -25 -22 -28 -15 -33 -30 -10 -30 8 0 20 9 27 20 7 11 20 20 28 20 9 0 16 9 17 20 1 11 0 20 -3 20 -2 0 -4 -4 -4 -10z"/>
 <path d="M831 2141 c-8 -11 -25 -25 -38 -32 -26 -14 -30 -29 -8 -29 8 0 15 5 15 10 0 6 6 10 14 10 8 0 18 9 21 20 3 11 11 20 16 20 5 0 9 5 9 10 0 16 -14 12 -29 -9z"/>
 <path d="M719 2057 c-14 -12 -45 -39 -70 -59 -24 -21 -38 -38 -31 -38 7 0 23 10 36 23 33 31 65 57 72 57 7 0 34 27 34 34 0 12 -15 5 -41 -17z"/>
 <path d="M733 1985 c-18 -20 -16 -25 7 -25 13 0 20 7 20 20 0 23 -10 25 -27 5z"/>
 <path d="M582 1948 c-16 -16 -15 -28 3 -28 8 0 15 5 15 10 0 6 8 10 18 10 14 0 15 2 2 10 -19 13 -24 12 -38 -2z"/>
 <path d="M670 1930 c-12 -8 -11 -10 8 -10 12 0 22 5 22 10 0 13 -11 13 -30 0z"/>
 <path d="M531 1880 c-44 -70 -51 -106 -51 -272 l0 -156 22 6 c13 3 31 13 40 22 10 9 31 23 46 31 15 8 35 21 45 30 23 20 88 32 133 23 35 -6 75 -41 154 -133 25 -28 61 -69 80 -90 51 -56 60 -69 60 -83 1 -7 7 -24 14 -37 13 -23 13 -23 29 18 19 47 24 97 7 71 -5 -8 -10 -27 -10 -42 0 -40 -14 -35 -35 12 -10 22 -23 40 -28 40 -6 0 -8 3 -4 6 7 8 -17 34 -32 34 -6 0 -11 4 -11 10 0 5 -13 22 -30 37 -17 15 -30 36 -30 50 0 16 -6 23 -20 23 -11 0 -19 4 -18 9 4 12 -58 71 -74 71 -9 0 -8 3 2 10 11 7 2 10 -33 10 -30 0 -46 4 -42 10 3 6 -3 10 -14 10 -12 0 -21 -4 -21 -10 0 -5 -16 -10 -36 -10 -21 0 -33 -4 -29 -10 3 -5 -1 -10 -9 -10 -9 0 -16 -4 -16 -10 0 -5 -5 -10 -11 -10 -6 0 -17 -7 -26 -15 -8 -8 -19 -12 -25 -9 -6 4 -8 2 -5 -3 8 -12 -39 -27 -54 -17 -6 4 -2 14 10 25 24 22 25 28 11 49 -9 13 -10 13 -10 0 0 -11 -3 -10 -11 4 -8 13 -8 20 1 26 8 5 11 37 9 106 -3 92 -1 103 25 152 34 62 31 77 -3 22z"/>
 <path d="M540 1590 c0 -5 14 -10 30 -10 17 0 30 5 30 10 0 6 -13 10 -30 10 -16 0 -30 -4 -30 -10z"/>
 <path d="M653 1520 c-18 -11 -33 -24 -33 -29 0 -6 -16 -13 -35 -17 -20 -3 -35 -12 -35 -20 0 -9 -11 -14 -30 -14 -18 0 -33 -7 -39 -18 -5 -10 -25 -24 -45 -32 -20 -7 -36 -17 -36 -22 0 -4 -7 -8 -15 -8 -8 0 -15 -4 -15 -10 0 -5 -8 -10 -18 -10 -10 0 -24 -9 -32 -20 -8 -11 -20 -20 -27 -20 -7 0 -13 -4 -13 -10 0 -5 -6 -10 -14 -10 -14 0 -26 -29 -26 -63 0 -9 11 -27 25 -39 14 -12 25 -30 25 -40 0 -10 7 -18 15 -18 8 0 15 -5 15 -10 0 -19 94 -110 113 -110 11 0 32 -9 49 -21 41 -29 112 -27 149 4 10 9 19 14 19 11 0 -4 9 4 21 17 15 17 19 19 15 6 -5 -16 -3 -16 32 -1 20 9 100 41 177 71 130 51 184 76 125 58 -14 -5 -33 -8 -42 -7 -10 0 -18 -3 -18 -7 0 -5 -9 -11 -19 -14 -14 -3 -18 -1 -14 9 3 8 8 14 12 14 4 0 18 10 30 21 19 18 25 19 32 8 7 -11 11 -11 21 4 15 20 12 107 -4 107 -5 0 -16 7 -24 15 -9 8 -12 15 -9 15 4 0 -7 13 -24 29 -17 16 -31 34 -31 40 0 7 -8 15 -17 18 -25 10 -45 31 -39 42 3 4 -18 29 -46 55 -45 41 -56 46 -97 46 -28 0 -59 -8 -78 -20z"/>
 <path d="M1100 1390 c0 -16 5 -30 10 -30 6 0 10 14 10 30 0 17 -4 30 -10 30 -5 0 -10 -13 -10 -30z"/>
 <path d="M1148 1153 c17 -2 47 -2 65 0 17 2 3 4 -33 4 -36 0 -50 -2 -32 -4z"/>
 <path d="M1574 940 c0 -69 2 -92 3 -52 2 39 8 72 13 72 6 0 9 24 8 53 l-1 52 -7 -45 -6 -45 -5 45 c-3 25 -5 -11 -5 -80z"/>
 <path d="M2270 1046 c0 -7 -18 -30 -40 -50 -22 -20 -36 -36 -30 -36 14 0 80 72 80 87 0 7 -2 13 -5 13 -3 0 -5 -6 -5 -14z"/>
 <path d="M1155 1008 c-30 -16 -65 -50 -65 -62 0 -8 3 -8 8 -1 4 6 25 21 47 34 50 29 126 32 175 5 39 -20 60 -26 60 -15 0 4 -20 17 -45 29 -50 24 -145 30 -180 10z"/>
 <path d="M1805 1010 c11 -5 27 -9 35 -9 9 0 8 4 -5 9 -11 5 -27 9 -35 9 -9 0 -8 -4 5 -9z"/>
 <path d="M1875 990 c11 -5 27 -9 35 -9 9 0 8 4 -5 9 -11 5 -27 9 -35 9 -9 0 -8 -4 5 -9z"/>
 <path d="M600 921 c0 -15 54 -41 82 -40 25 1 19 4 -24 13 -15 3 -34 13 -42 22 -9 8 -16 11 -16 5z"/>
 <path d="M1592 870 c0 -19 2 -27 5 -17 2 9 2 25 0 35 -3 9 -5 1 -5 -18z"/>
 <path d="M735 871 c3 -6 22 -11 42 -11 44 0 41 5 -10 14 -27 5 -37 4 -32 -3z"/>
 <path d="M980 830 c8 -5 26 -9 40 -9 l25 1 -25 8 c-14 4 -32 8 -40 9 -13 1 -13 0 0 -9z"/>
 <path d="M1546 785 c-9 -14 -13 -25 -8 -25 5 0 14 11 20 25 6 14 10 25 8 25 -2 0 -11 -11 -20 -25z"/>
 <path d="M1610 793 c0 -9 40 -36 45 -31 2 2 -8 11 -21 21 -13 10 -24 14 -24 10z"/>
 <path d="M1467 748 c6 -11 41 -10 47 1 3 4 -8 8 -23 7 -16 -1 -27 -4 -24 -8z"/>
 </g>
<g id="layer108" fill="#edf4e5" stroke="none">
 <path d="M855 1110 c-4 -6 8 -10 29 -10 20 0 36 5 36 10 0 6 -13 10 -29 10 -17 0 -33 -4 -36 -10z"/>
 <path d="M1460 1108 c0 -4 14 -8 30 -8 17 0 30 2 30 4 0 2 -13 6 -30 8 -16 3 -30 1 -30 -4z"/>
 <path d="M792 1074 c-11 -12 -9 -14 8 -14 11 0 20 4 20 9 0 17 -15 19 -28 5z"/>
 <path d="M714 1045 c3 -10 -1 -15 -12 -16 -9 0 -12 -3 -6 -5 6 -3 23 2 38 9 22 12 24 16 11 21 -27 10 -38 7 -31 -9z"/>
 <path d="M1162 1005 c-13 -7 -29 -18 -35 -24 -17 -17 5 -13 32 5 34 24 121 22 164 -4 20 -11 38 -18 41 -15 3 3 -15 17 -41 29 -52 27 -123 30 -161 9z"/>
 </g>

</svg>